HIERARCHY
ROOT Hips
{
	OFFSET -3.958830 18.904000 13.208200
	CHANNELS 6 Xposition Yposition Zposition Zrotation Yrotation Xrotation 
	JOINT LHipJoint
	{
		OFFSET 0.000000 0.000000 0.000000
		CHANNELS 3 Zrotation Yrotation Xrotation
		JOINT LeftUpLeg
		{
			OFFSET 1.800000 -1.400000 0.085000
			CHANNELS 3 Zrotation Yrotation Xrotation
			JOINT LeftLeg
			{
				OFFSET 2.215000 -6.000000 0.000000
				CHANNELS 3 Zrotation Yrotation Xrotation
				JOINT LeftFoot
				{
					OFFSET 2.500000 -6.900000 0.000000
					CHANNELS 3 Zrotation Yrotation Xrotation
					JOINT LeftToeBase
					{
						OFFSET 0.200000 -0.500000 1.950000
						CHANNELS 3 Zrotation Yrotation Xrotation
						End Site
						{
							OFFSET 0.000000 0.000000 0.000000
						}
					}
				}
			}
		}
	}
	JOINT RHipJoint
	{
		OFFSET 0.000000 0.000000 0.000000
		CHANNELS 3 Zrotation Yrotation Xrotation
		JOINT RightUpLeg
		{
			OFFSET -1.800000 -1.400000 0.085000
			CHANNELS 3 Zrotation Yrotation Xrotation
			JOINT RightLeg
			{
				OFFSET -2.215000 -6.000000 0.000000
				CHANNELS 3 Zrotation Yrotation Xrotation
				JOINT RightFoot
				{
					OFFSET -2.500000 -6.900000 0.000000
					CHANNELS 3 Zrotation Yrotation Xrotation
					JOINT RightToeBase
					{
						OFFSET -0.200000 -0.500000 1.950000
						CHANNELS 3 Zrotation Yrotation Xrotation
						End Site
						{
							OFFSET 0.000000 0.000000 0.000000
						}
					}
				}
			}
		}
	}
	JOINT LowerBack
	{
		OFFSET 0.000000 0.000000 0.000000
		CHANNELS 3 Zrotation Yrotation Xrotation
		JOINT Spine
		{
			OFFSET -0.087000 1.940000 -0.288900
			CHANNELS 3 Zrotation Yrotation Xrotation
			JOINT Spine1
			{
				OFFSET 0.000000 1.950000 0.060000
				CHANNELS 3 Zrotation Yrotation Xrotation
				JOINT Neck
				{
					OFFSET 0.000000 0.000000 0.000000
					CHANNELS 3 Zrotation Yrotation Xrotation
					JOINT Neck1
					{
						OFFSET 0.000000 1.600000 0.340000
						CHANNELS 3 Zrotation Yrotation Xrotation
						JOINT Head
						{
							OFFSET 0.000000 1.667000 -0.240000
							CHANNELS 3 Zrotation Yrotation Xrotation
							End Site
							{
								OFFSET 0.000000 0.000000 0.000000
							}
						}
					}
				}
				JOINT LeftShoulder
				{
					OFFSET 0.000000 0.000000 0.000000
					CHANNELS 3 Zrotation Yrotation Xrotation
					JOINT LeftArm
					{
						OFFSET 2.700000 1.550000 -0.730000
						CHANNELS 3 Zrotation Yrotation Xrotation
						JOINT LeftForeArm
						{
							OFFSET 5.450000 0.000000 0.000000
							CHANNELS 3 Zrotation Yrotation Xrotation
							JOINT LeftHand
							{
								OFFSET 3.450000 0.000000 0.000000
								CHANNELS 3 Zrotation Yrotation Xrotation
								JOINT LeftHandIndex1
								{
									OFFSET 0.750000 0.000000 0.000000
									CHANNELS 3 Zrotation Yrotation Xrotation
									End Site
									{
										OFFSET 0.000000 0.000000 0.000000
									}
								}
							}
						}
					}
				}
				JOINT RightShoulder
				{
					OFFSET 0.000000 0.000000 0.000000
					CHANNELS 3 Zrotation Yrotation Xrotation
					JOINT RightArm
					{
						OFFSET -2.700000 1.550000 -0.730000
						CHANNELS 3 Zrotation Yrotation Xrotation
						JOINT RightForeArm
						{
							OFFSET -5.450000 0.000000 0.000000
							CHANNELS 3 Zrotation Yrotation Xrotation
							JOINT RightHand
							{
								OFFSET -3.450000 0.000000 0.000000
								CHANNELS 3 Zrotation Yrotation Xrotation
								JOINT RightHandIndex1
								{
									OFFSET -0.750000 0.000000 0.000000
									CHANNELS 3 Zrotation Yrotation Xrotation
									End Site
									{
										OFFSET 0.000000 0.000000 0.000000
									}
								}
							}
						}
					}
				}
			}
		}
	}
}
MOTION
Frames: 6
Frame Time: 0.016667
0.583980 16.787190 10.261380 -3.729020 17.725471 -13.381169 -14.816986 12.596145 3.563932 -2.024317 1.468577 8.511711 -13.487168 6.754805 2.958551 -1.119105 6.023708 2.756274 -0.647270 -1.218730 -0.675260 18.742712 -10.465105 3.443292 13.619772 2.546163 -16.526315 7.006748 -7.584839 21.386898 -0.271919 -3.437935 3.613145 -0.470710 0.834550 -0.261440 -5.144988 -0.770869 -8.497876 24.495140 -12.452892 27.573503 -22.861954 -8.652841 -7.274455 5.207084 -2.338711 -12.823472 -11.964697 2.154634 64.806916 6.902010 -6.289180 -14.382050 -18.882740 -1.442808 3.202347 -47.201939 -0.452664 -3.545451 127.441531 -62.696218 -114.834127 -4.099992 1.628108 1.645240 0.071620 -0.326760 0.004380 6.699894 1.603930 10.647765 69.555766 -11.736704 -16.111022 52.468724 30.927502 9.674282 1.340731 -0.372652 -1.278480 1.133390 1.069220 -0.528010 
0.663040 16.765380 10.259920 -4.577375 16.281651 -13.495758 -14.801058 12.459321 3.527124 -2.066402 1.366497 9.143669 -13.588449 6.666770 2.092002 -1.106789 6.088277 2.744944 -0.644140 -1.213840 -0.719130 18.817867 -10.299807 3.519609 15.974322 2.470681 -15.114559 6.721651 -7.638300 21.542348 -0.310814 -3.572139 3.572030 -0.458700 0.881490 -0.240370 -5.202986 -0.806839 -8.431364 26.374202 -13.178218 26.222105 -24.455387 -8.897268 -4.585766 5.840880 -3.507932 -12.795102 -14.716915 3.535439 62.501388 7.289910 -6.654240 -15.014310 -19.231154 -2.671407 2.804534 -48.206795 -3.450816 -3.990064 116.778177 -60.219819 -97.706535 -4.132677 1.179316 1.626410 0.090220 -0.348820 0.030730 5.781855 3.435822 11.391147 69.466147 -10.214886 -15.477799 59.299718 33.615356 12.480075 1.292928 -0.501270 -1.275400 1.144290 1.085440 -0.499840 
0.726280 16.749760 10.258130 -4.566380 15.330434 -14.089340 -14.787975 12.304067 3.584395 -2.590373 1.309155 10.228762 -14.483792 6.695810 1.315337 -1.065755 6.200052 2.720408 -0.602900 -1.154540 -0.706590 18.864160 -10.259046 3.530262 17.056665 1.964106 -13.199351 6.775488 -7.851822 21.819992 -0.391955 -3.756537 3.519453 -0.424750 0.889260 -0.242940 -5.247228 -0.673251 -8.443859 26.027986 -13.386835 26.323926 -24.904094 -8.832135 -2.059666 6.191382 -3.780590 -12.935071 -15.329963 3.715373 61.809209 7.804030 -6.787060 -17.218280 -19.958661 -4.837015 2.620221 -48.247922 -6.411715 -5.267722 109.186128 -58.222773 -85.289884 -4.055529 0.891379 1.635130 0.080120 -0.332420 0.060210 5.862463 5.626458 12.119566 69.335136 -8.900454 -15.425248 64.873140 36.512174 15.108269 1.272131 -0.580235 -1.273930 1.177960 1.057540 -0.485950 
0.806010 16.736650 10.259740 -5.402280 14.848800 -14.369253 -14.793650 12.220976 3.577486 -2.626722 1.107788 10.609794 -14.907756 6.686630 0.816547 -1.078474 6.292450 2.687476 -0.609770 -1.158230 -0.736530 18.896241 -10.140597 3.563442 18.464331 1.640344 -11.977647 6.880761 -8.108623 22.273458 -0.426222 -3.934957 3.462891 -0.404150 0.922820 -0.246270 -5.256137 -0.743699 -8.394233 27.205841 -13.873001 24.844204 -25.982864 -8.692583 0.957185 6.897528 -4.058359 -13.447909 -15.981893 4.157182 60.975640 7.634940 -7.125980 -16.751110 -20.876488 -7.504913 2.634719 -48.003260 -8.891232 -7.023363 102.450795 -55.757067 -74.520816 -4.025762 0.828895 1.620770 0.101710 -0.360130 0.064600 5.410201 8.459080 13.330006 69.592826 -7.950538 -15.729645 71.012329 40.037444 18.465192 1.228422 -0.660244 -1.291050 1.203910 1.084600 -0.479340 
0.890110 16.715800 10.264070 -6.239714 14.660865 -14.869584 -14.790327 12.131851 3.554448 -2.660527 0.951329 11.267150 -14.869626 6.691749 0.568095 -1.088457 6.367279 2.660829 -0.603450 -1.151890 -0.747490 18.933809 -10.083096 3.548938 19.198317 1.181165 -10.823015 7.319116 -8.515493 22.830718 -0.470226 -4.146501 3.384546 -0.381930 0.945410 -0.250590 -5.297580 -0.728283 -8.305861 28.324988 -14.548222 23.468158 -26.847827 -8.932058 4.072727 7.364814 -4.554147 -13.566261 -17.011869 4.625899 59.280362 7.948180 -7.421550 -17.235830 -20.841888 -9.454608 2.536190 -48.051904 -11.719381 -8.364273 95.553264 -53.163316 -64.737508 -3.999606 0.910240 1.607640 0.109450 -0.384950 0.066360 4.543332 10.344099 13.992236 69.746281 -6.490919 -15.469672 76.731436 43.162983 22.179019 1.204253 -0.741234 -1.302700 1.221150 1.099470 -0.473930 
0.980840 16.693850 10.273850 -6.984165 14.359128 -15.018751 -14.795347 12.087589 3.531907 -2.728947 0.796931 11.504389 -15.004262 6.743478 0.614700 -1.089363 6.426860 2.654806 -0.609670 -1.147240 -0.785020 18.954778 -10.037434 3.511564 19.430235 0.730987 -9.939901 8.042802 -8.954927 23.221999 -0.499392 -4.338865 3.326588 -0.360330 0.993280 -0.268900 -5.303604 -0.778866 -8.202903 29.488343 -14.874987 22.049252 -27.423274 -9.091351 6.185726 7.734331 -5.314181 -13.441258 -18.639456 5.368364 57.309334 8.883090 -7.972120 -17.208790 -20.834462 -10.334770 2.057430 -48.544909 -14.623739 -8.737044 88.223646 -50.399133 -55.422049 -3.983846 1.028475 1.581360 0.125310 -0.420680 0.084520 3.942442 11.305837 14.433848 69.224303 -5.854684 -14.720951 83.196665 45.580808 26.513484 1.200485 -0.803932 -1.322630 1.256090 1.111100 -0.451540 
